Coordinates
version=1
nRows=11
nColumns=40
inDegrees=yes

Units are S.I. units (second, meters, Newtons, ...)
If the header above contains a line with 'inDegrees', this indicates whether rotational values are in degrees (yes) or radians (no).

endheader
time	pelvis_tilt	pelvis_list	pelvis_rotation	pelvis_tx	pelvis_ty	pelvis_tz	hip_flexion_r	hip_adduction_r	hip_rotation_r	knee_angle_r	knee_angle_r_beta	ankle_angle_r	subtalar_angle_r	mtp_angle_r	hip_flexion_l	hip_adduction_l	hip_rotation_l	knee_angle_l	knee_angle_l_beta	ankle_angle_l	subtalar_angle_l	mtp_angle_l	lumbar_extension	lumbar_bending	lumbar_rotation	arm_flex_r	arm_add_r	arm_rot_r	elbow_flex_r	pro_sup_r	wrist_flex_r	wrist_dev_r	arm_flex_l	arm_add_l	arm_rot_l	elbow_flex_l	pro_sup_l	wrist_flex_l	wrist_dev_l
      3.55000000	    -28.38388242	     -2.83948908	      1.19144575	     -0.38285160	      0.87314176	     -1.05615629	     31.61006730	    -11.33544052	     -6.04704082	     88.27274222	      1.54064999	    -13.61713590	      0.00000000	      0.00000000	     67.85567244	     -2.61208897	     -2.74554494	     66.14527319	      1.15445280	     14.79512135	      0.00000000	      0.00000000	      0.58581351	    -19.89461396	     -9.18720222	     89.95706994	    -26.83408100	      3.02562827	     46.53474674	     43.54451176	      0.00000000	      0.00000000	     89.96244459	    -35.47183663	      2.56172108	     55.33537140	     45.86371815	      0.00000000	      0.00000000
      3.55500000	    -28.40104330	     -2.97895850	      1.20502893	     -0.38285944	      0.87313433	     -1.05555187	     31.50285922	    -11.45783285	     -5.94230230	     88.31854191	      1.54144935	    -13.54330036	      0.00000000	      0.00000000	     67.90941186	     -2.69624237	     -2.58540553	     66.19771190	      1.15536803	     14.82419035	      0.00000000	      0.00000000	      0.47672007	    -19.93919494	     -9.31228596	     89.95670566	    -27.08881887	      3.05028932	     46.34683377	     43.56525748	      0.00000000	      0.00000000	     89.96221454	    -35.73597501	      2.56526572	     55.39440848	     45.93411515	      0.00000000	      0.00000000
      3.56000000	    -28.44923941	     -3.22713816	      1.28413437	     -0.38312869	      0.87313374	     -1.05501894	     31.38312207	    -11.50149488	     -5.96393333	     88.37939903	      1.54251150	    -13.23495442	      0.00000000	      0.00000000	     68.02307597	     -2.73938412	     -2.24981243	     66.19256101	      1.15527813	     14.68888140	      0.00000000	      0.00000000	      0.35754360	    -19.87498375	     -9.56502436	     89.95642824	    -27.36985700	      3.30034386	     46.13575970	     43.67084625	      0.00000000	      0.00000000	     89.96188310	    -36.09356312	      2.67194730	     55.56248767	     46.16517951	      0.00000000	      0.00000000
      3.56500000	    -28.50372081	     -3.37228774	      1.30769295	     -0.38329622	      0.87306252	     -1.05438936	     31.30406959	    -11.61070806	     -5.88394610	     88.42811264	      1.54336172	    -13.22260923	      0.00000000	      0.00000000	     68.12810219	     -2.85070336	     -2.18238744	     66.20313684	      1.15546271	     14.72754271	      0.00000000	      0.00000000	      0.28730232	    -19.89367230	     -9.64390238	     89.95580764	    -27.61654539	      3.23918649	     46.07749774	     43.67801415	      0.00000000	      0.00000000	     89.96180201	    -36.32230299	      2.59656178	     55.51101073	     46.18652345	      0.00000000	      0.00000000
      3.57000000	    -28.54666571	     -3.51941359	      1.32180122	     -0.38340221	      0.87294303	     -1.05375272	     31.20997111	    -11.73715731	     -5.79259291	     88.46899863	      1.54407531	    -13.16626562	      0.00000000	      0.00000000	     68.21746968	     -2.95229705	     -2.05984986	     66.22778935	      1.15589298	     14.75959285	      0.00000000	      0.00000000	      0.22128993	    -19.90078311	     -9.73052767	     89.95530200	    -27.82232852	      3.22214233	     45.98213692	     43.69225671	      0.00000000	      0.00000000	     89.96158480	    -36.52979357	      2.55499695	     55.49491155	     46.22479725	      0.00000000	      0.00000000
      3.57500000	    -28.52334012	     -3.70798730	      1.40407109	     -0.38317922	      0.87274303	     -1.05320364	     30.96335281	    -11.84540101	     -5.80836163	     88.50619263	      1.54472447	    -12.69980498	      0.00000000	      0.00000000	     68.25901996	     -2.98446069	     -1.80984875	     66.34036508	      1.15785780	     14.76892635	      0.00000000	      0.00000000	      0.10502702	    -19.87787318	     -9.93933867	     89.95504445	    -27.97312117	      3.38223930	     45.72485948	     43.85031315	      0.00000000	      0.00000000	     89.96129807	    -36.85134142	      2.65722405	     55.47663028	     46.33435498	      0.00000000	      0.00000000
      3.58000000	    -28.56308759	     -3.83981591	      1.39334708	     -0.38326200	      0.87263033	     -1.05256245	     30.87282053	    -11.98663352	     -5.73072762	     88.52448270	      1.54504369	    -12.69845494	      0.00000000	      0.00000000	     68.33514126	     -3.09378790	     -1.72915583	     66.35468789	      1.15810778	     14.78893084	      0.00000000	      0.00000000	      0.03560808	    -19.90743321	    -10.00013120	     89.95440147	    -28.18973531	      3.35939349	     45.66152140	     43.86663585	      0.00000000	      0.00000000	     89.96112063	    -37.07548768	      2.60473463	     55.45648647	     46.36588238	      0.00000000	      0.00000000
      3.58500000	    -28.56890236	     -4.04030676	      1.45386018	     -0.38331737	      0.87250395	     -1.05198381	     30.70090766	    -12.03308217	     -5.66871350	     88.56726722	      1.54579042	    -12.42081765	      0.00000000	      0.00000000	     68.41786570	     -3.15220410	     -1.51057754	     66.42223490	      1.15928670	     14.91404423	      0.00000000	      0.00000000	     -0.06492438	    -19.85705075	    -10.19875042	     89.95416188	    -28.30897758	      3.58153457	     45.45299632	     44.05206307	      0.00000000	      0.00000000	     89.96089674	    -37.41225402	      2.73847967	     55.45934331	     46.50568831	      0.00000000	      0.00000000
      3.59000000	    -28.55695940	     -4.14411564	      1.42784746	     -0.38342121	      0.87253736	     -1.05137899	     30.53760800	    -12.17417064	     -5.57782991	     88.53887133	      1.54529482	    -12.29438297	      0.00000000	      0.00000000	     68.43411730	     -3.24610800	     -1.39483706	     66.44170644	      1.15962654	     14.83721655	      0.00000000	      0.00000000	     -0.19305980	    -19.90109560	    -10.23318849	     89.95377740	    -28.48218199	      3.58016412	     45.33825442	     44.17634623	      0.00000000	      0.00000000	     89.96073582	    -37.67373350	      2.74373938	     55.49289362	     46.56642176	      0.00000000	      0.00000000
      3.59500000	    -28.56578961	     -4.26131109	      1.41260796	     -0.38335067	      0.87241525	     -1.05072225	     30.40410378	    -12.32613933	     -5.45072913	     88.55336682	      1.54554781	    -12.27621965	      0.00000000	      0.00000000	     68.46571169	     -3.34648686	     -1.32118256	     66.45060912	      1.15978192	     14.83877339	      0.00000000	      0.00000000	     -0.26524292	    -19.92663463	    -10.22876867	     89.95318190	    -28.66456248	      3.58099210	     45.27523326	     44.19580339	      0.00000000	      0.00000000	     89.96041964	    -37.88195149	      2.70834374	     55.47170398	     46.59754587	      0.00000000	      0.00000000
      3.60000000	    -28.51493655	     -4.45230271	      1.47860313	     -0.38309576	      0.87211845	     -1.05007901	     30.11566095	    -12.37233342	     -5.44465025	     88.58551112	      1.54610884	    -11.89474333	      0.00000000	      0.00000000	     68.50049712	     -3.43529060	     -1.15841512	     66.60014523	      1.16239182	     14.84009766	      0.00000000	      0.00000000	     -0.38205800	    -19.88833577	    -10.30303317	     89.95284945	    -28.80178953	      3.58683963	     45.02495651	     44.26927054	      0.00000000	      0.00000000	     89.96024733	    -38.05356335	      2.82087394	     55.41522533	     46.59428281	      0.00000000	      0.00000000
